# xmcd
#
# Track frame offsets:
#	150
#	15123
#	25793
#	37341
#	47735
#	56491
#	69998
#	84171
#	93911
#	105394
#	116307
#	125770
#
# Disc length: 1805 seconds
#
# Revision: 0
# Processed by: cddbd v1.5.1PL2 Copyright (c) Steve Scherf et al.
# Submitted via: EasyCDDAExtractor 9.0.0.1
#
DISCID=89070b0c
DTITLE=Elvis Presley - The Original Elvis Presley Collection 19 - Golden Recor
DTITLE=ds Vol. 3
DYEAR=1961
DGENRE=
TTITLE0=It's Now Or Never
TTITLE1=Stuck On You
TTITLE2=Fame And Fortune
TTITLE3=I Gotta Know
TTITLE4=Surrender
TTITLE5=I Feel So Bad
TTITLE6=Are You Lonesome Tonight
TTITLE7=(Marie's The Name) His Latest Flame
TTITLE8=Little Sister
TTITLE9=Good Luck Charm
TTITLE10=Anything That's Part Of You
TTITLE11=She's Not You
EXTD=Tracks 1-5, 7 1960 BMG Music\nTracks 6, 8-12 1961 BMG Music YEAR: 1961\n
EXTT0=
EXTT1=
EXTT2=
EXTT3=
EXTT4=
EXTT5=
EXTT6=
EXTT7=
EXTT8=
EXTT9=
EXTT10=
EXTT11=
PLAYORDER=
